# xmcd
#
# Track frame offsets: 
#        150
#        20555
#        36071
#        53608
#        65861
#        87308
#        103275
#        126066
#        141206
#        152915
#        167280
#        176600
#        194277
#        202813
#
# Disc length: 2909 seconds
#
# Revision: 1
# Processed by: cddbd v1.5.2PL0 Copyright (c) Steve Scherf et al.
# Submitted via: ExactAudioCopyFreeDBPlugin 1.0
#
DISCID=bd0b5b0e
DTITLE=Beatallica - Masterful Mystery Tour
DYEAR=2009
DGENRE=Metal
TTITLE0=The Battery Of Jaymz And Yoko
TTITLE1=Masterful Mystery Tour
TTITLE2=Fuel On The Hill
TTITLE3=And I'm Evil
TTITLE4=Everybody's Got A Ticket To Ride Except For Me And My Lightnin
TTITLE4=g
TTITLE5=Running For Your Life
TTITLE6=The Thing That Shoud Not Let It Be
TTITLE7=Hero Of The Day Tripper
TTITLE8=Got To Get You Trapped Under Ice
TTITLE9=I'll Just Bleed Your Face
TTITLE10=I Wnat To Choke Your Band
TTITLE11=Tomorrow Never Comes
TTITLE12=I Want To Choke Your Band (Live)
TTITLE13=Revolution (Live)
EXTD=
EXTT0=
EXTT1=
EXTT2=
EXTT3=
EXTT4=
EXTT5=
EXTT6=
EXTT7=
EXTT8=
EXTT9=
EXTT10=
EXTT11=
EXTT12=
EXTT13=
PLAYORDER=
